<svg width="80" height="80" viewBox="0 0 80 80" fill="none" xmlns="http://www.w3.org/2000/svg">
<circle cx="40" cy="40" r="40" fill="#D9D9D9"/>
<path d="M58.3334 56.5V52.0185C58.3334 49.6414 57.3676 47.3616 55.6485 45.6807C53.9294 43.9999 51.5978 43.0555 49.1667 43.0555H30.8334C28.4022 43.0555 26.0706 43.9999 24.3515 45.6807C22.6325 47.3616 21.6667 49.6414 21.6667 52.0185V56.5" fill="#737373"/>
<path d="M40 39.5926C45.0626 39.5926 49.1667 35.5797 49.1667 30.6296C49.1667 25.6795 45.0626 21.6667 40 21.6667C34.9374 21.6667 30.8334 25.6795 30.8334 30.6296C30.8334 35.5797 34.9374 39.5926 40 39.5926Z" fill="#737373"/>
</svg>
